<mxfile host="app.diagrams.net" modified="2020-12-18T13:22:20.753Z" agent="5.0 (Windows NT 10.0; Win64; x64) AppleWebKit/537.36 (KHTML, like Gecko) Chrome/87.0.4280.88 Safari/537.36" etag="CTuHpruNRtbeMRYfM5-h" version="14.0.5" type="github">
  <diagram id="PQCgGNhLhsKNh2j2jryg" name="Page-1">
    <mxGraphModel dx="1422" dy="794" grid="1" gridSize="10" guides="1" tooltips="1" connect="1" arrows="1" fold="1" page="1" pageScale="1" pageWidth="827" pageHeight="1169" math="0" shadow="0">
      <root>
        <mxCell id="0" />
        <mxCell id="1" parent="0" />
        <mxCell id="wb1LMAFxjqWtD9bHAhWX-11" value="PHASE 1" style="text;html=1;align=center;verticalAlign=middle;resizable=0;points=[];autosize=1;fontStyle=1;fontFamily=Verdana;fontSize=20;" vertex="1" parent="1">
          <mxGeometry x="45" y="10" width="110" height="30" as="geometry" />
        </mxCell>
        <mxCell id="wb1LMAFxjqWtD9bHAhWX-16" value="" style="group" vertex="1" connectable="0" parent="1">
          <mxGeometry x="10" y="40" width="505" height="160" as="geometry" />
        </mxCell>
        <mxCell id="wb1LMAFxjqWtD9bHAhWX-1" value="" style="verticalLabelPosition=bottom;html=1;verticalAlign=top;align=center;strokeColor=none;fillColor=#00BEF2;shape=mxgraph.azure.mysql_database;" vertex="1" parent="wb1LMAFxjqWtD9bHAhWX-16">
          <mxGeometry x="20" y="40" width="75" height="100" as="geometry" />
        </mxCell>
        <mxCell id="wb1LMAFxjqWtD9bHAhWX-3" value="Binlog" style="verticalLabelPosition=bottom;html=1;verticalAlign=top;align=center;strokeColor=none;fillColor=#00BEF2;shape=mxgraph.azure.cloud_services_configuration_file;pointerEvents=1;" vertex="1" parent="wb1LMAFxjqWtD9bHAhWX-16">
          <mxGeometry x="160" y="62.5" width="52.25" height="55" as="geometry" />
        </mxCell>
        <mxCell id="wb1LMAFxjqWtD9bHAhWX-4" style="edgeStyle=orthogonalEdgeStyle;rounded=0;orthogonalLoop=1;jettySize=auto;html=1;entryX=0;entryY=0.5;entryDx=0;entryDy=0;entryPerimeter=0;fillColor=#dae8fc;strokeColor=#6c8ebf;" edge="1" parent="wb1LMAFxjqWtD9bHAhWX-16" source="wb1LMAFxjqWtD9bHAhWX-1" target="wb1LMAFxjqWtD9bHAhWX-3">
          <mxGeometry relative="1" as="geometry" />
        </mxCell>
        <mxCell id="wb1LMAFxjqWtD9bHAhWX-5" value="mysql-to-mssql-syncer (desktop)" style="outlineConnect=0;dashed=0;verticalLabelPosition=bottom;verticalAlign=top;align=center;html=1;shape=mxgraph.aws3.worker;fillColor=#D9A741;gradientColor=none;" vertex="1" parent="wb1LMAFxjqWtD9bHAhWX-16">
          <mxGeometry x="280" y="58.5" width="60" height="63" as="geometry" />
        </mxCell>
        <mxCell id="wb1LMAFxjqWtD9bHAhWX-6" style="edgeStyle=orthogonalEdgeStyle;rounded=0;orthogonalLoop=1;jettySize=auto;html=1;entryX=0;entryY=0.5;entryDx=0;entryDy=0;entryPerimeter=0;" edge="1" parent="wb1LMAFxjqWtD9bHAhWX-16" source="wb1LMAFxjqWtD9bHAhWX-3" target="wb1LMAFxjqWtD9bHAhWX-5">
          <mxGeometry relative="1" as="geometry" />
        </mxCell>
        <mxCell id="wb1LMAFxjqWtD9bHAhWX-7" value="" style="aspect=fixed;html=1;points=[];align=center;image;fontSize=12;image=img/lib/mscae/SQL_Servers.svg;" vertex="1" parent="wb1LMAFxjqWtD9bHAhWX-16">
          <mxGeometry x="410" y="42.5" width="95" height="95" as="geometry" />
        </mxCell>
        <mxCell id="wb1LMAFxjqWtD9bHAhWX-8" style="edgeStyle=orthogonalEdgeStyle;rounded=0;orthogonalLoop=1;jettySize=auto;html=1;" edge="1" parent="wb1LMAFxjqWtD9bHAhWX-16" source="wb1LMAFxjqWtD9bHAhWX-5" target="wb1LMAFxjqWtD9bHAhWX-7">
          <mxGeometry relative="1" as="geometry" />
        </mxCell>
        <mxCell id="wb1LMAFxjqWtD9bHAhWX-10" value="Server" style="swimlane;" vertex="1" parent="wb1LMAFxjqWtD9bHAhWX-16">
          <mxGeometry width="380" height="160" as="geometry">
            <mxRectangle x="110" y="200" width="70" height="23" as="alternateBounds" />
          </mxGeometry>
        </mxCell>
        <mxCell id="wb1LMAFxjqWtD9bHAhWX-29" value="" style="pointerEvents=1;shadow=0;dashed=0;html=1;strokeColor=none;labelPosition=center;verticalLabelPosition=bottom;verticalAlign=top;align=center;fillColor=#505050;shape=mxgraph.mscae.intune.intune_managed_app;fontFamily=Verdana;fontSize=20;" vertex="1" parent="wb1LMAFxjqWtD9bHAhWX-10">
          <mxGeometry x="300.27" y="28.5" width="39.47" height="30" as="geometry" />
        </mxCell>
        <mxCell id="wb1LMAFxjqWtD9bHAhWX-17" value="&lt;ul&gt;&lt;li&gt;&lt;font color=&quot;#00cc00&quot;&gt;Support MySQL &amp;amp; MSSQL only&lt;/font&gt;&lt;/li&gt;&lt;li&gt;&lt;font color=&quot;#cccc00&quot;&gt;In case MSSQL goes offline, this app can still log changes &amp;amp; re-sync once it goes back up&lt;/font&gt;&lt;/li&gt;&lt;li&gt;Desktop UI: Users can just simply define models, db configurations, then press GO! button -&amp;gt; Done!&lt;/li&gt;&lt;li&gt;Desktop UI should have an on-screen console that print logs live from the service&lt;br&gt;&lt;/li&gt;&lt;/ul&gt;" style="text;html=1;strokeColor=#36393d;fillColor=#eeeeee;align=left;verticalAlign=top;whiteSpace=wrap;rounded=0;fontFamily=Verdana;fontSize=20;" vertex="1" parent="1">
          <mxGeometry x="10" y="220" width="790" height="210" as="geometry" />
        </mxCell>
        <mxCell id="wb1LMAFxjqWtD9bHAhWX-18" value="" style="group" vertex="1" connectable="0" parent="1">
          <mxGeometry x="20" y="470" width="505" height="160" as="geometry" />
        </mxCell>
        <mxCell id="wb1LMAFxjqWtD9bHAhWX-19" value="" style="verticalLabelPosition=bottom;html=1;verticalAlign=top;align=center;strokeColor=none;fillColor=#00BEF2;shape=mxgraph.azure.mysql_database;" vertex="1" parent="wb1LMAFxjqWtD9bHAhWX-18">
          <mxGeometry x="20" y="40" width="75" height="100" as="geometry" />
        </mxCell>
        <mxCell id="wb1LMAFxjqWtD9bHAhWX-20" value="Binlog" style="verticalLabelPosition=bottom;html=1;verticalAlign=top;align=center;strokeColor=none;fillColor=#00BEF2;shape=mxgraph.azure.cloud_services_configuration_file;pointerEvents=1;" vertex="1" parent="wb1LMAFxjqWtD9bHAhWX-18">
          <mxGeometry x="160" y="62.5" width="52.25" height="55" as="geometry" />
        </mxCell>
        <mxCell id="wb1LMAFxjqWtD9bHAhWX-21" style="edgeStyle=orthogonalEdgeStyle;rounded=0;orthogonalLoop=1;jettySize=auto;html=1;entryX=0;entryY=0.5;entryDx=0;entryDy=0;entryPerimeter=0;fillColor=#dae8fc;strokeColor=#6c8ebf;" edge="1" parent="wb1LMAFxjqWtD9bHAhWX-18" source="wb1LMAFxjqWtD9bHAhWX-19" target="wb1LMAFxjqWtD9bHAhWX-20">
          <mxGeometry relative="1" as="geometry" />
        </mxCell>
        <mxCell id="wb1LMAFxjqWtD9bHAhWX-22" value="mysql-to-mssql-syncer (desktop)" style="outlineConnect=0;dashed=0;verticalLabelPosition=bottom;verticalAlign=top;align=center;html=1;shape=mxgraph.aws3.worker;fillColor=#D9A741;gradientColor=none;" vertex="1" parent="wb1LMAFxjqWtD9bHAhWX-18">
          <mxGeometry x="280" y="58.5" width="60" height="63" as="geometry" />
        </mxCell>
        <mxCell id="wb1LMAFxjqWtD9bHAhWX-23" style="edgeStyle=orthogonalEdgeStyle;rounded=0;orthogonalLoop=1;jettySize=auto;html=1;entryX=0;entryY=0.5;entryDx=0;entryDy=0;entryPerimeter=0;" edge="1" parent="wb1LMAFxjqWtD9bHAhWX-18" source="wb1LMAFxjqWtD9bHAhWX-20" target="wb1LMAFxjqWtD9bHAhWX-22">
          <mxGeometry relative="1" as="geometry" />
        </mxCell>
        <mxCell id="wb1LMAFxjqWtD9bHAhWX-24" value="" style="aspect=fixed;html=1;points=[];align=center;image;fontSize=12;image=img/lib/mscae/SQL_Servers.svg;" vertex="1" parent="wb1LMAFxjqWtD9bHAhWX-18">
          <mxGeometry x="400" y="42.5" width="95" height="95" as="geometry" />
        </mxCell>
        <mxCell id="wb1LMAFxjqWtD9bHAhWX-25" style="edgeStyle=orthogonalEdgeStyle;rounded=0;orthogonalLoop=1;jettySize=auto;html=1;" edge="1" parent="wb1LMAFxjqWtD9bHAhWX-18" source="wb1LMAFxjqWtD9bHAhWX-22" target="wb1LMAFxjqWtD9bHAhWX-24">
          <mxGeometry relative="1" as="geometry" />
        </mxCell>
        <mxCell id="wb1LMAFxjqWtD9bHAhWX-26" value="Server" style="swimlane;" vertex="1" parent="wb1LMAFxjqWtD9bHAhWX-18">
          <mxGeometry x="-10" width="380" height="160" as="geometry">
            <mxRectangle x="110" y="200" width="70" height="23" as="alternateBounds" />
          </mxGeometry>
        </mxCell>
        <mxCell id="wb1LMAFxjqWtD9bHAhWX-31" value="" style="pointerEvents=1;shadow=0;dashed=0;html=1;strokeColor=none;labelPosition=center;verticalLabelPosition=bottom;verticalAlign=top;align=center;fillColor=#505050;shape=mxgraph.mscae.intune.intune_managed_app;fontFamily=Verdana;fontSize=20;" vertex="1" parent="wb1LMAFxjqWtD9bHAhWX-26">
          <mxGeometry x="300.53" y="32.5" width="39.47" height="30" as="geometry" />
        </mxCell>
        <mxCell id="wb1LMAFxjqWtD9bHAhWX-27" value="" style="endArrow=none;dashed=1;html=1;dashPattern=1 3;strokeWidth=2;fontFamily=Verdana;fontSize=20;exitX=0;exitY=1;exitDx=0;exitDy=0;entryX=1;entryY=1;entryDx=0;entryDy=0;" edge="1" parent="1" source="wb1LMAFxjqWtD9bHAhWX-17" target="wb1LMAFxjqWtD9bHAhWX-17">
          <mxGeometry width="50" height="50" relative="1" as="geometry">
            <mxPoint x="320" y="430" as="sourcePoint" />
            <mxPoint x="370" y="380" as="targetPoint" />
          </mxGeometry>
        </mxCell>
        <mxCell id="wb1LMAFxjqWtD9bHAhWX-28" value="PHASE 1.5" style="text;html=1;align=center;verticalAlign=middle;resizable=0;points=[];autosize=1;fontStyle=1;fontFamily=Verdana;fontSize=20;" vertex="1" parent="1">
          <mxGeometry x="20" y="440" width="130" height="30" as="geometry" />
        </mxCell>
        <mxCell id="wb1LMAFxjqWtD9bHAhWX-33" style="edgeStyle=orthogonalEdgeStyle;rounded=0;orthogonalLoop=1;jettySize=auto;html=1;fontFamily=Verdana;fontSize=20;" edge="1" parent="1" source="wb1LMAFxjqWtD9bHAhWX-32" target="wb1LMAFxjqWtD9bHAhWX-22">
          <mxGeometry relative="1" as="geometry" />
        </mxCell>
        <mxCell id="wb1LMAFxjqWtD9bHAhWX-32" value="&lt;font face=&quot;Helvetica&quot;&gt;&lt;span style=&quot;font-size: 12px&quot;&gt;watcher&lt;/span&gt;&lt;/font&gt;" style="outlineConnect=0;dashed=0;verticalLabelPosition=bottom;verticalAlign=top;align=center;html=1;shape=mxgraph.aws3.worker;fillColor=#D9A741;gradientColor=none;fontFamily=Verdana;fontSize=20;" vertex="1" parent="1">
          <mxGeometry x="300" y="650" width="60" height="63" as="geometry" />
        </mxCell>
        <mxCell id="wb1LMAFxjqWtD9bHAhWX-36" value="&lt;ul&gt;&lt;li&gt;Watcher: send emails to users in case of:&lt;/li&gt;&lt;ul&gt;&lt;li&gt;MSSQL down&lt;/li&gt;&lt;li&gt;MySQL down&lt;/li&gt;&lt;li&gt;Mismatch happened between the 2 nodes&lt;/li&gt;&lt;/ul&gt;&lt;/ul&gt;" style="text;html=1;strokeColor=#36393d;fillColor=#eeeeee;align=left;verticalAlign=top;whiteSpace=wrap;rounded=0;fontFamily=Verdana;fontSize=20;" vertex="1" parent="1">
          <mxGeometry x="19" y="750" width="790" height="130" as="geometry" />
        </mxCell>
      </root>
    </mxGraphModel>
  </diagram>
</mxfile>